<?xml version="1.0" encoding="UTF-8" standalone="no"?><!DOCTYPE svg PUBLIC "-//W3C//DTD SVG 1.1//EN" "http://www.w3.org/Graphics/SVG/1.1/DTD/svg11.dtd"><svg width="100%" height="100%" viewBox="0 0 462 462" version="1.1" xmlns="http://www.w3.org/2000/svg" xmlns:xlink="http://www.w3.org/1999/xlink" xml:space="preserve" xmlns:serif="http://www.serif.com/" style="fill-rule:evenodd;clip-rule:evenodd;stroke-linejoin:round;stroke-miterlimit:1.41421;"><g><path d="M442,444.833l0,-300.616c0,-4.817 -1.983,-9.35 -5.383,-12.467l-136.85,-127.217c-3.117,-2.833 -7.367,-4.533 -11.617,-4.533l-211.65,0c-9.35,0 -17,7.65 -17,17l0,189.833c0,9.35 7.65,17 17,17c9.35,0 17,-7.65 17,-17l0,-172.833l172.833,0l0,130.333c0,9.35 7.65,17 17,17l121.833,0c0.85,0 1.983,0 2.833,-0.283l0,246.783l-314.499,0l0,-68c0,-9.35 -7.65,-17 -17,-17c-9.35,0 -17,7.65 -17,17l0,85c0,9.35 7.65,17 17,17l348.5,0c9.35,0 17,-7.65 17,-17Zm-141.667,-393.266l102.85,95.767l-102.85,0l0,-95.767Z" style="fill:#fff;fill-rule:nonzero;"/><path d="M19.833,280.5c0,9.35 7.65,17 17,17l177.083,0l-54.683,48.733c-7.083,6.233 -7.65,17 -1.417,24.083c3.4,3.683 7.933,5.667 12.75,5.667c3.967,0 7.933,-1.417 11.333,-4.25l88.4,-78.767c3.683,-3.117 5.667,-7.933 5.667,-12.75c0,-4.817 -1.983,-9.35 -5.667,-12.75l-88.399,-78.766c-7.083,-6.233 -17.85,-5.667 -24.083,1.417c-6.233,7.083 -5.667,17.85 1.417,24.083l55.533,49.3l-177.934,0c-9.35,0 -17,7.65 -17,17Z" style="fill:#fff;fill-rule:nonzero;"/></g></svg>