<?xml version="1.0" encoding="UTF-8" standalone="no"?><!DOCTYPE svg PUBLIC "-//W3C//DTD SVG 1.1//EN" "http://www.w3.org/Graphics/SVG/1.1/DTD/svg11.dtd"><svg width="100%" height="100%" viewBox="0 0 364 364" version="1.1" xmlns="http://www.w3.org/2000/svg" xmlns:xlink="http://www.w3.org/1999/xlink" xml:space="preserve" xmlns:serif="http://www.serif.com/" style="fill-rule:evenodd;clip-rule:evenodd;stroke-linejoin:round;stroke-miterlimit:1.41421;"><path id="XMLID_847_" d="M101.348,79.501l0,-68.201c0,-6.075 4.925,-11 11,-11c6.075,0 11,4.925 11,11l0,68.202c0,20.403 13.28,37.641 28.999,37.641c15.719,0 28.999,-17.237 28.999,-37.641l0,-57.502l-18.001,0l0,57.157c0,6.075 -4.925,11 -11,11c-6.075,0 -11,-4.925 -11,-11l0,-68.157c0,-6.075 4.925,-11 11,-11l40.001,0c2.917,0 5.715,1.159 7.778,3.222c2.063,2.063 3.222,4.861 3.222,7.778l0,68.501c0,32.886 -22.878,59.641 -50.999,59.641c-28.121,0 -50.999,-26.754 -50.999,-59.641Zm10.003,129.579l81.99,0c6.075,0 11,-4.925 11,-11c0,-6.075 -4.925,-11 -11,-11l-81.99,0c-6.075,0 -11,4.925 -11,11c0,6.075 4.925,11 11,11Zm20.284,21.198c-6.075,0 -11,4.925 -11,11c0,6.075 4.925,11 11,11l41.422,0c6.075,0 11,-4.925 11,-11c0,-6.075 -4.925,-11 -11,-11l-41.422,0Zm137.52,63.413l0,-246.889c0,-6.075 -4.925,-11 -11,-11l-29.5,0c-6.075,0 -11,4.925 -11,11c0,6.075 4.925,11 11,11l18.5,0l0,224.889l-189.619,0l0,-224.889l18.5,0c6.075,0 11,-4.925 11,-11c0,-6.075 -4.925,-11 -11,-11l-29.5,0c-6.075,0 -11,4.925 -11,11l0,246.889c0,6.075 4.925,11 11,11l211.619,0c6.075,0 11,-4.925 11,-11Zm48.127,-216.555l-20.762,0c-6.075,0 -11,4.925 -11,11c0,6.075 4.925,11 11,11l9.762,0l0,242.681l-207.413,0l0,-13.55c0,-6.075 -4.925,-11 -11,-11c-6.075,0 -11,4.925 -11,11l0,24.55c0,6.075 4.925,11 11,11l229.413,0c6.075,0 11,-4.925 11,-11l0,-264.681c0,-6.075 -4.925,-11 -11,-11Z" style="fill:#fff;fill-rule:nonzero;"/></svg>