<svg width="35" height="33" viewBox="0 0 35 33" fill="none" xmlns="http://www.w3.org/2000/svg">
<path d="M33.0113 28.3141H18.8702C18.2197 28.3141 17.6917 28.842 17.6917 29.4937C17.6917 30.1453 18.2197 30.6732 18.8702 30.6732L33.0113 30.6391C33.6618 30.6391 34.1898 30.1453 34.1898 29.4937C34.1897 28.842 33.663 28.3141 33.0113 28.3141ZM16.5134 2.35923L33.0113 2.35688C33.6618 2.35688 34.1898 1.83132 34.1898 1.17962C34.1898 0.527911 33.6618 0 33.0113 0H16.5134C15.8628 0 15.3349 0.527911 15.3349 1.17962C15.3349 1.83132 15.8628 2.35923 16.5134 2.35923ZM18.5014 21.5688C18.0394 21.1044 17.2899 21.1044 16.828 21.5688L10.6212 28.7112V0H8.26437V28.7536L2.01983 21.5688C1.55789 21.1044 0.808374 21.1044 0.346494 21.5688C-0.115498 22.0331 -0.115498 22.7849 0.346494 23.248L8.5271 32.6625C8.7734 32.9099 9.10098 33.0148 9.4227 32.9983C9.74554 33.0148 10.072 32.9099 10.3183 32.6625L18.4989 23.248C18.9633 22.7849 18.9633 22.0331 18.5014 21.5688ZM33.0113 7.07881H16.5134C15.8628 7.07881 15.3349 7.60677 15.3349 8.25842C15.3349 8.91013 15.8628 9.42742 16.5134 9.42742H33.0113C33.6618 9.42742 34.1898 8.91007 34.1898 8.25842C34.1897 7.60677 33.663 7.07881 33.0113 7.07881ZM33.0113 14.1564H16.5134C15.8628 14.1564 15.3349 14.6844 15.3349 15.3361C15.3349 15.9878 15.8628 16.4968 16.5134 16.4968L33.0113 16.5157C33.6618 16.5157 34.1898 15.9877 34.1898 15.3361C34.1897 14.6856 33.663 14.1564 33.0113 14.1564ZM33.0113 21.2352H23.5839C22.9334 21.2352 22.4055 21.7632 22.4055 22.4148C22.4055 23.0665 22.9334 23.5685 23.5839 23.5685H33.0113C33.6618 23.5685 34.1898 23.0665 34.1898 22.4148C34.1897 21.7632 33.663 21.2352 33.0113 21.2352Z" fill="white"/>
</svg>
