<svg width="24" height="35" viewBox="0 0 24 35" fill="none" xmlns="http://www.w3.org/2000/svg">
<path d="M12 0C5.3832 0 0 5.3832 0 12C0 14.2356 0.619267 16.4173 1.79127 18.3101L11.3169 33.6606C11.4994 33.9547 11.8209 34.1333 12.1666 34.1333C12.1693 34.1333 12.1719 34.1333 12.1745 34.1333C12.5233 34.1306 12.8454 33.9464 13.0245 33.6472L22.3074 18.148C23.4147 16.2952 24 14.1693 24 12C24 5.3832 18.6168 0 12 0ZM20.5911 17.1212L12.1515 31.2124L3.49113 17.2564C2.5156 15.6809 1.98667 13.8633 1.98667 12C1.98667 6.486 6.486 1.98667 12 1.98667C17.514 1.98667 22.0067 6.486 22.0067 12C22.0067 13.8081 21.5126 15.5792 20.5911 17.1212Z" fill="white"/>
<path d="M12 6C8.6916 6 6 8.6916 6 12C6 15.2873 8.6478 18 12 18C15.3935 18 18 15.2511 18 12C18 8.6916 15.3084 6 12 6ZM12 16.0133C9.78287 16.0133 7.98667 14.2111 7.98667 12C7.98667 9.7944 9.7944 7.98667 12 7.98667C14.2056 7.98667 16.0067 9.7944 16.0067 12C16.0067 14.1789 14.2523 16.0133 12 16.0133Z" fill="white"/>
</svg>
