<svg width="27" height="32" viewBox="0 0 27 32" fill="none" xmlns="http://www.w3.org/2000/svg">
<path d="M26.6192 26.1308C26.6189 26.1306 26.6189 26.1306 26.6187 26.1303C22.7639 22.7807 21.1105 18.4455 21.0905 11.6356C21.0844 9.57039 20.2341 7.5484 18.7579 6.08818C18.1261 5.46318 17.4086 4.96293 16.6349 4.59818V3.26541C16.6349 1.46485 15.1706 0 13.3705 0C11.5707 0 10.1064 1.46485 10.1064 3.26541V4.6785C7.59149 5.92754 5.85485 8.52643 5.85485 11.5089C5.85485 15.0189 5.42118 17.8617 4.52918 20.1996C3.65208 22.4987 2.27809 24.4384 0.328878 26.1294C0.0291874 26.3891 -0.0789258 26.8137 0.0596933 27.1853C0.198556 27.5569 0.558039 27.8064 0.954372 27.8064L8.58696 27.8066C8.76683 30.1489 10.728 32 13.1145 32C15.5011 32 17.4622 30.1492 17.6421 27.8071L25.9932 27.8073C26.3895 27.8073 26.749 27.5578 26.8876 27.1862C27.0262 26.8149 26.9184 26.3908 26.6192 26.1308ZM11.9851 3.26541C11.9851 2.50124 12.6067 1.87941 13.3705 1.87941C14.1347 1.87941 14.7562 2.50124 14.7562 3.26541V4.00198C14.3145 3.92435 13.864 3.88602 13.4081 3.88943C12.9217 3.89358 12.4461 3.94437 11.9851 4.03665V3.26541ZM13.1145 30.1208C11.7647 30.1208 10.647 29.1111 10.4747 27.8069L15.7546 27.8071C15.5823 29.1111 14.4644 30.1208 13.1145 30.1208ZM3.21035 25.9272C4.55115 24.4267 5.56419 22.757 6.28413 20.87C7.25934 18.3141 7.73329 15.2523 7.73329 11.5091C7.73329 8.37018 10.2863 5.79521 13.424 5.7686C14.9205 5.75346 16.3448 6.34429 17.4371 7.42462C18.5602 8.53571 19.2072 10.0726 19.2118 11.6412C19.2228 15.3431 19.7028 18.3759 20.6795 20.9128C21.3987 22.7814 22.4074 24.4374 23.7384 25.9282L3.21035 25.9272Z" fill="white"/>
</svg>
