<svg width="27" height="33" viewBox="0 0 27 33" fill="none" xmlns="http://www.w3.org/2000/svg">
<path d="M6.41211 16.2207H6.91016C7.37565 16.2207 7.72396 16.1296 7.95508 15.9473C8.1862 15.7617 8.30176 15.4932 8.30176 15.1416C8.30176 14.7868 8.2041 14.5247 8.00879 14.3555C7.81673 14.1862 7.514 14.1016 7.10059 14.1016H6.41211V16.2207ZM9.83008 15.0879C9.83008 15.8561 9.58919 16.4437 9.10742 16.8506C8.62891 17.2575 7.94694 17.4609 7.06152 17.4609H6.41211V20H4.89844V12.8613H7.17871C8.0446 12.8613 8.70215 13.0485 9.15137 13.4229C9.60384 13.7939 9.83008 14.349 9.83008 15.0879ZM17.1006 16.3623C17.1006 17.5374 16.7653 18.4375 16.0947 19.0625C15.4274 19.6875 14.4622 20 13.1992 20H11.1777V12.8613H13.4189C14.5843 12.8613 15.4893 13.1689 16.1338 13.7842C16.7783 14.3994 17.1006 15.2588 17.1006 16.3623ZM15.5283 16.4014C15.5283 14.8682 14.8512 14.1016 13.4971 14.1016H12.6914V18.75H13.3408C14.7992 18.75 15.5283 17.9671 15.5283 16.4014ZM20.0693 20H18.5801V12.8613H22.6719V14.1016H20.0693V15.9424H22.4912V17.1777H20.0693V20Z" fill="white"/>
<rect x="1" y="1" width="25" height="31" rx="1" stroke="white" stroke-width="2"/>
</svg>
