<svg width="16" height="16" viewBox="0 0 16 16" fill="none" xmlns="http://www.w3.org/2000/svg">
<path d="M7.99998 0C3.58203 0 0 3.58204 0 8C0 12.4179 3.58203 16 7.99998 16C12.4179 16 15.9999 12.4179 15.9999 8C15.9999 3.58204 12.4179 0 7.99998 0ZM12.2245 11.6729L11.584 12.3136C11.4696 12.4278 11.1347 12.499 11.124 12.499C9.0976 12.5167 7.14649 11.7207 5.71292 10.287C4.27543 8.84872 3.47855 6.89065 3.49996 4.85742C3.49996 4.8565 3.57329 4.53123 3.68755 4.41806L4.32806 3.77745C4.56245 3.54197 5.01269 3.43556 5.3281 3.54108L5.46284 3.58603C5.77732 3.69145 6.1075 4.03917 6.19439 4.35953L6.51659 5.54209C6.60348 5.86337 6.48629 6.32044 6.25197 6.55483L5.82428 6.98258C6.24418 8.5371 7.4639 9.75705 9.01869 10.178L9.44621 9.75013C9.68169 9.51465 10.1386 9.39756 10.4592 9.48431L11.6416 9.80767C11.962 9.89571 12.3096 10.2238 12.415 10.5382L12.46 10.6749C12.5644 10.9894 12.4589 11.4396 12.2245 11.6729Z" fill="#23A2FF"/>
</svg>
