<svg width="16" height="16" viewBox="0 0 16 16" fill="none" xmlns="http://www.w3.org/2000/svg">
<circle cx="8" cy="8" r="8" fill="#8DA0B2"/>
<path d="M10.1186 11.6756C10.0582 11.6756 9.99821 11.6578 9.94673 11.6228L8.0018 10.3036L6.95865 11.0542C6.87684 11.113 6.77138 11.1278 6.67639 11.0938C6.58151 11.0598 6.50945 10.9812 6.48373 10.8838L5.95995 8.89878L4.08842 8.18316C3.9706 8.13809 3.89247 8.02537 3.89161 7.89922C3.89075 7.77307 3.96734 7.6593 4.08459 7.61263L11.2008 4.78103C11.2331 4.76731 11.2673 4.75939 11.3017 4.75727C11.3141 4.75654 11.3264 4.75654 11.3387 4.75723C11.4101 4.76148 11.4802 4.79054 11.5349 4.84419C11.5406 4.84974 11.546 4.85541 11.5511 4.86133C11.5964 4.9131 11.6213 4.97621 11.626 5.04051C11.6271 5.05668 11.627 5.07305 11.6256 5.08942C11.6246 5.1011 11.623 5.11273 11.6206 5.12428L10.4194 11.4268C10.4001 11.528 10.3312 11.6128 10.236 11.6522C10.1982 11.6679 10.1583 11.6756 10.1186 11.6756ZM8.17257 9.67943L9.90505 10.8546L10.8397 5.95054L7.46402 9.1988L8.16441 9.67391C8.16722 9.67567 8.16992 9.67755 8.17257 9.67943ZM6.73036 9.41811L6.96232 10.2971L7.4621 9.93744L6.80768 9.49351C6.77726 9.47293 6.75122 9.4473 6.73036 9.41811ZM5.04025 7.89143L6.32533 8.38275C6.41739 8.41794 6.48688 8.49535 6.51203 8.59063L6.675 9.20827C6.68247 9.13703 6.71476 9.06999 6.76722 9.01949L9.98376 5.92441L5.04025 7.89143Z" fill="white"/>
</svg>
