<svg width="16" height="16" viewBox="0 0 16 16" fill="none" xmlns="http://www.w3.org/2000/svg">
<path d="M0 16L1.376 11.8723C0.677793 10.6979 0.275862 9.32745 0.275862 7.86207C0.275862 3.52 3.79586 0 8.13793 0C12.48 0 16 3.52 16 7.86207C16 12.2041 12.48 15.7241 8.13793 15.7241C6.81683 15.7241 5.57269 15.3967 4.48 14.8212L0 16Z" fill="#2CB742"/>
<path d="M13.1531 10.4787C12.7901 9.79264 11.4513 9.00809 11.4513 9.00809C11.1484 8.8354 10.7829 8.81609 10.6102 9.12395C10.6102 9.12395 10.1752 9.64561 10.0646 9.72064C9.55919 10.063 9.09105 10.0497 8.6185 9.57719L7.52029 8.47899L6.42208 7.38078C5.94953 6.90823 5.93629 6.44009 6.27863 5.93471C6.35367 5.82409 6.87532 5.38906 6.87532 5.38906C7.18319 5.21609 7.16387 4.85085 6.99119 4.54795C6.99119 4.54795 6.20663 3.20919 5.52056 2.84616C5.2287 2.69168 4.87036 2.74575 4.63698 2.97912L4.15201 3.46409C2.61353 5.00257 3.37105 6.7394 4.90953 8.27788L6.3156 9.68395L7.72167 11.09C9.26015 12.6285 10.997 13.386 12.5355 11.8475L13.0204 11.3626C13.2538 11.1286 13.3076 10.7703 13.1531 10.4787Z" fill="white"/>
</svg>
